<?xml version="1.0" encoding="utf-8"?> 
<svg xmlns="http://www.w3.org/2000/svg" id="Capa_1" data-name="Capa 1" viewBox="0 0 1100 385"><defs><style>.cls-1{fill:#e6485c}</style></defs><path d="M448.79 135.61q-17.34-10.28-39.1-10.28a75.46 75.46 0 00-38.95 10.28 73.49 73.49 0 00-27.35 27.93 78.82 78.82 0 00-9.85 39.11 79.62 79.62 0 009.85 39.25 73.35 73.35 0 0027.2 28.1q17.34 10.29 39.1 10.29t39.1-10.29a74.46 74.46 0 0027.35-28.07 78.77 78.77 0 0010-39.25 78 78 0 00-10-39.11 75 75 0 00-27.35-27.96zm-9.7 99.23a38.27 38.27 0 01-29.4 12.79q-17.94 0-29.4-12.64t-11.46-32.34q0-19.41 11.46-32.05t29.4-12.6q17.64 0 29.4 12.64t11.76 32.05q0 19.31-11.76 32.15zM511.75 70.35h35.28v205.8h-35.28zM843.38 70.35h35.28v205.8h-35.28zM1012.72 129.44v75q0 17.94-9.26 27.64t-24.26 9.7q-14.1 0-21.75-7.94t-7.65-26.75v-77.65h-35.28v83.5q0 31.16 14.26 46.45T968 274.68q15.59 0 25.87-5.15a57.12 57.12 0 0018.53-15.14l.29.88v15.58q0 18.24-9.26 28.08T978 308.78q-22.17 0-29-16.32l-29.16 15a60.44 60.44 0 0015.71 18.82q16 12.8 42.49 12.79 32.93 0 51.45-18.67t18.51-49.84V129.44zM794.58 98a20.7 20.7 0 0112 3.65l15-24.89a51.59 51.59 0 00-11.33-6.84q-8.68-4-23.08-4-17.64 0-29.55 11.61t-11.91 31.9v20h-23.8v30.87h23.86v115.85h35.28V160.31h35.13v-30.87h-35.13v-15.88q0-15.56 13.53-15.56zM682.56 139q-17.34-13.68-43.8-13.67-25.87 0-40.57 11t-20.77 33l31.48 5.71c1.36-6.7 4.11-11.88 8.25-15.49q6.9-6 20.43-6 27 0 27 26.75v1.77l-31.46 4.41q-32.34 4.41-45.13 17.2T575.25 235a42.36 42.36 0 006.75 23.8 44.78 44.78 0 0018.22 15.88 57 57 0 0025.29 5.58q28.51 0 40.86-17.34l3.83 13.23h29.69v-96.43q.02-27.06-17.33-40.72zm-17.93 85.7q0 12.65-8.53 19.84t-21.16 7.2q-12.06 0-19-5.14a16.19 16.19 0 01-6.9-13.67q0-9.1 6.32-14t20.14-6.91l29.1-4.41zM268.93 149c-19.24 15.66-49.14 19.46-90.71 11.41V70.66h-35.81v80.76c-1.68-.5-3.37-1-5.09-1.55-32.12-10-68.75-5.88-89.32 1l7.18 30.6c14.21-5.91 47.16-9.83 72.84-1.81 4.89 1.53 9.68 2.93 14.39 4.24v92.23h35.81v-84.1a229 229 0 0038.48 3.55c20.09 0 37.44-3.4 52.23-10.16v90.71h35.82V70.66h-35.82z" class="cls-1"/></svg>